<svg xmlns="http://www.w3.org/2000/svg" width="272" height="64" viewBox="0 0 272 64" role="img" aria-labelledby="title description">
  <title id="title">Buy me a coffee</title>
  <desc id="description">A coffee cup with a heart beside the words Buy me a coffee</desc>
  <rect x="0.75" y="0.75" width="270.5" height="62.5" rx="18" fill="#202020" stroke="#383838" stroke-width="1.5"/>
  <g transform="translate(19 14)" fill="none" stroke="#F7F7F7" stroke-width="2.5" stroke-linecap="round" stroke-linejoin="round">
    <path d="M3 7h27v15a10 10 0 0 1-10 10h-7A10 10 0 0 1 3 22V7Z"/>
    <path d="M30 11h2.5a6.5 6.5 0 0 1 0 13H30"/>
    <path d="M7 2c2 2 5 2 7 0M18 2c2 2 5 2 7 0"/>
  </g>
  <path d="M34.5 26.3c-2.7-3.2-8-1.3-8 3.2 0 3.3 3 5.8 8 9.2 5-3.4 8-5.9 8-9.2 0-4.5-5.3-6.4-8-3.2Z" fill="#FF6B6B"/>
  <text x="70" y="40" fill="#F7F7F7" font-family="-apple-system, BlinkMacSystemFont, 'Segoe UI', sans-serif" font-size="20" font-weight="700" letter-spacing="-0.25">Buy me a coffee</text>
</svg>
